<svg width="50" height="50" viewBox="0 0 50 50" fill="none" xmlns="http://www.w3.org/2000/svg">
<path fill-rule="evenodd" clip-rule="evenodd" d="M18.9794 3.00144C18.5848 3.35558 18.1717 3.68855 17.7419 3.99894C16.9969 4.49894 16.1594 4.84394 15.2794 5.01894C14.8969 5.09394 14.4969 5.12644 13.6994 5.18894C11.6969 5.34894 10.6944 5.42895 9.85937 5.72394C8.90436 6.06056 8.03694 6.60697 7.32092 7.32299C6.6049 8.03901 6.05849 8.90643 5.72187 9.86144C5.42687 10.6964 5.34687 11.6989 5.18687 13.7014C5.15816 14.2307 5.10142 14.7582 5.01687 15.2814C4.84187 16.1614 4.49687 16.9989 3.99687 17.7439C3.77937 18.0689 3.51937 18.3739 2.99937 18.9814C1.69687 20.5114 1.04437 21.2764 0.661875 22.0764C-0.220625 23.9264 -0.220625 26.0764 0.661875 27.9264C1.04437 28.7264 1.69687 29.4914 2.99937 31.0214C3.51937 31.6289 3.77937 31.9339 3.99687 32.2589C4.49687 33.0039 4.84187 33.8414 5.01687 34.7214C5.09187 35.1039 5.12437 35.5039 5.18687 36.3014C5.34687 38.3039 5.42687 39.3064 5.72187 40.1414C6.05849 41.0965 6.6049 41.9639 7.32092 42.6799C8.03694 43.3959 8.90436 43.9423 9.85937 44.2789C10.6944 44.5739 11.6969 44.6539 13.6994 44.8139C14.4969 44.8764 14.8969 44.9089 15.2794 44.9839C16.1594 45.1589 16.9969 45.5064 17.7419 46.0039C18.0669 46.2214 18.3719 46.4814 18.9794 47.0014C20.5094 48.3039 21.2744 48.9564 22.0744 49.3389C23.9244 50.2214 26.0744 50.2214 27.9244 49.3389C28.7244 48.9564 29.4894 48.3039 31.0194 47.0014C31.6269 46.4814 31.9319 46.2214 32.2569 46.0039C33.0019 45.5039 33.8394 45.1589 34.7194 44.9839C35.1019 44.9089 35.5019 44.8764 36.2994 44.8139C38.3019 44.6539 39.3044 44.5739 40.1394 44.2789C41.0944 43.9423 41.9618 43.3959 42.6778 42.6799C43.3938 41.9639 43.9403 41.0965 44.2769 40.1414C44.5719 39.3064 44.6519 38.3039 44.8119 36.3014C44.8744 35.5039 44.9069 35.1039 44.9819 34.7214C45.1569 33.8414 45.5044 33.0039 46.0019 32.2589C46.2194 31.9339 46.4794 31.6289 46.9994 31.0214C48.3019 29.4914 48.9544 28.7264 49.3369 27.9264C50.2194 26.0764 50.2194 23.9264 49.3369 22.0764C48.9544 21.2764 48.3019 20.5114 46.9994 18.9814C46.6452 18.5869 46.3123 18.1738 46.0019 17.7439C45.5016 16.9991 45.1548 16.1619 44.9819 15.2814C44.8973 14.7582 44.8406 14.2307 44.8119 13.7014C44.6519 11.6989 44.5719 10.6964 44.2769 9.86144C43.9403 8.90643 43.3938 8.03901 42.6778 7.32299C41.9618 6.60697 41.0944 6.06056 40.1394 5.72394C39.3044 5.42895 38.3019 5.34894 36.2994 5.18894C35.7701 5.16023 35.2427 5.10349 34.7194 5.01894C33.8389 4.846 33.0018 4.49924 32.2569 3.99894C31.827 3.68855 31.414 3.35558 31.0194 3.00144C29.4894 1.69894 28.7244 1.04644 27.9244 0.663945C27.0112 0.226874 26.0117 0 24.9994 0C23.987 0 22.9875 0.226874 22.0744 0.663945C21.2744 1.04644 20.5094 1.69894 18.9794 3.00144ZM34.5769 15.4264C34.9576 15.808 35.1715 16.3249 35.1715 16.8639C35.1715 17.4029 34.9576 17.9199 34.5769 18.3014L18.2994 34.5814C18.1139 34.7844 17.8892 34.9477 17.6389 35.0615C17.3886 35.1752 17.1178 35.2371 16.8429 35.2433C16.568 35.2495 16.2947 35.1999 16.0395 35.0975C15.7843 34.9952 15.5525 34.8422 15.3581 34.6478C15.1636 34.4533 15.0106 34.2215 14.9083 33.9663C14.8059 33.7111 14.7563 33.4378 14.7625 33.1629C14.7687 32.888 14.8306 32.6173 14.9443 32.3669C15.0581 32.1166 15.2214 31.8919 15.4244 31.7064L31.6994 15.4289C32.0809 15.0482 32.5979 14.8344 33.1369 14.8344C33.6759 14.8344 34.1929 15.0482 34.5744 15.4289M34.4919 31.7864C34.4919 32.5058 34.2061 33.1958 33.6974 33.7045C33.1887 34.2132 32.4988 34.4989 31.7794 34.4989C31.06 34.4989 30.37 34.2132 29.8613 33.7045C29.3527 33.1958 29.0669 32.5058 29.0669 31.7864C29.0669 31.067 29.3527 30.3771 29.8613 29.8684C30.37 29.3597 31.06 29.0739 31.7794 29.0739C32.4988 29.0739 33.1887 29.3597 33.6974 29.8684C34.2061 30.3771 34.4919 31.067 34.4919 31.7864ZM18.2169 20.9364C18.9363 20.9364 19.6262 20.6507 20.1349 20.142C20.6436 19.6333 20.9294 18.9433 20.9294 18.2239C20.9294 17.5045 20.6436 16.8146 20.1349 16.3059C19.6262 15.7972 18.9363 15.5114 18.2169 15.5114C17.4975 15.5114 16.8075 15.7972 16.2988 16.3059C15.7902 16.8146 15.5044 17.5045 15.5044 18.2239C15.5044 18.9433 15.7902 19.6333 16.2988 20.142C16.8075 20.6507 17.4975 20.9364 18.2169 20.9364Z" fill="#F4F4F4"/>
</svg>
